<svg width="712" height="291" viewBox="0 0 712 291" fill="none" xmlns="http://www.w3.org/2000/svg">
<path d="M232.619 262.627C232.619 257.97 231.418 254.578 229.011 252.461C226.604 250.343 223.104 249.284 218.506 249.284H213.275V275.813H219.158C223.55 275.813 226.888 274.706 229.182 272.49C231.471 270.274 232.619 266.985 232.619 262.627ZM236.79 262.514C236.79 267.941 235.251 272.083 232.168 274.936C229.084 277.794 224.79 279.22 219.271 279.22H209.378V245.877H218.619C221.398 245.877 223.888 246.206 226.084 246.858C228.275 247.514 230.177 248.505 231.795 249.833C233.413 251.166 234.648 252.902 235.506 255.044C236.359 257.186 236.79 259.671 236.79 262.514Z" fill="#858789"/>
<path d="M261.413 259.053C260.305 257.74 258.795 257.083 256.869 257.083C254.947 257.083 253.373 257.759 252.158 259.122C250.942 260.485 250.226 262.343 250.016 264.701H263.07C263.07 262.25 262.516 260.372 261.413 259.053ZM257.614 279.74C254.02 279.74 251.192 278.598 249.128 276.313C247.06 274.029 246.025 270.901 246.025 266.931C246.025 263.102 247.025 259.995 249.025 257.612C251.025 255.23 253.653 254.014 256.918 253.97C259.981 253.97 262.413 255.019 264.207 257.112C266.006 259.21 266.903 262.014 266.903 265.514C266.903 265.691 266.898 266.024 266.888 266.504C266.883 266.985 266.878 267.333 266.878 267.539H249.903C249.952 270.352 250.677 272.544 252.079 274.112C253.486 275.686 255.373 276.47 257.746 276.47C260.364 276.47 262.986 275.779 265.614 274.392L266.202 277.436C263.692 278.97 260.829 279.74 257.614 279.74Z" fill="#858789"/>
<path d="M308.149 279.219V266.346C308.149 265.146 308.124 264.136 308.071 263.327C308.017 262.513 307.899 261.69 307.713 260.847C307.522 260.008 307.257 259.342 306.924 258.851C306.585 258.366 306.115 257.964 305.512 257.655C304.909 257.351 304.188 257.195 303.35 257.195C301.698 257.195 300.286 257.641 299.12 258.523C297.958 259.41 297.124 260.66 296.629 262.268C296.497 263.351 296.428 264.508 296.428 265.739V279.219H292.664V265.945C292.664 264.827 292.625 263.866 292.551 263.043C292.473 262.224 292.33 261.43 292.12 260.655C291.909 259.881 291.629 259.253 291.276 258.773C290.924 258.293 290.453 257.91 289.87 257.621C289.281 257.337 288.58 257.195 287.772 257.195C285.968 257.195 284.453 257.655 283.232 258.572C282.007 259.489 281.183 260.704 280.762 262.224C280.625 263.381 280.556 264.631 280.556 265.984V279.219H276.796C276.762 263.753 276.747 255.513 276.747 254.489H279.904L280.375 258.028C281.129 256.886 282.198 255.925 283.58 255.141C284.963 254.361 286.531 253.974 288.291 253.974C289.208 253.974 290.051 254.067 290.825 254.253C291.6 254.44 292.247 254.68 292.762 254.964C293.281 255.249 293.747 255.592 294.154 255.989C294.556 256.386 294.875 256.778 295.095 257.16C295.321 257.543 295.512 257.945 295.664 258.366C297.463 255.435 300.223 253.974 303.933 253.974C306.683 253.974 308.703 254.758 309.987 256.327C311.272 257.896 311.914 260.224 311.914 263.302V279.219H308.149Z" fill="#858789"/>
<path d="M318.178 254.489H322.168L329.967 275.072L336.913 254.489H340.903C334.227 272.856 330.781 282.322 330.555 282.89C329.516 285.493 328.261 287.395 326.79 288.606C325.32 289.817 323.379 290.425 320.972 290.425C320.251 290.425 319.496 290.361 318.697 290.243L318.472 287.042C319.31 287.101 319.942 287.131 320.364 287.131C322.06 287.131 323.354 286.817 324.232 286.194C325.109 285.572 325.893 284.405 326.585 282.69C327.202 281.111 327.663 279.895 327.962 279.038L318.178 254.489Z" fill="#858789"/>
<path d="M356.357 279.738C354.676 279.738 353.127 279.557 351.706 279.199C350.284 278.836 349.127 278.37 348.245 277.797L348.715 274.62C351.225 275.959 353.691 276.625 356.107 276.625C359.774 276.625 361.661 275.336 361.769 272.748C361.769 271.655 361.377 270.787 360.598 270.155C359.813 269.527 358.284 268.816 356 268.037L354.127 267.38C351.965 266.665 350.416 265.767 349.495 264.704C348.568 263.635 348.098 262.302 348.088 260.714C348.088 258.772 348.867 257.165 350.416 255.885C351.97 254.611 354.103 253.973 356.808 253.973C359.603 253.973 362.156 254.513 364.451 255.596L363.348 258.478C361.014 257.517 358.838 257.037 356.808 257.037C355.235 257.037 354 257.351 353.103 257.973C352.206 258.596 351.764 259.473 351.764 260.601C351.764 261.562 352.083 262.297 352.73 262.807C353.377 263.317 354.666 263.905 356.607 264.567C357.103 264.743 357.725 264.954 358.48 265.199C360.97 266.008 362.74 266.968 363.779 268.071C364.813 269.174 365.333 270.665 365.333 272.547C365.299 274.831 364.48 276.601 362.872 277.856C361.264 279.111 359.098 279.738 356.357 279.738Z" fill="#858789"/>
<path d="M382.983 279.669C380.547 279.669 378.816 279.076 377.792 277.89C376.772 276.703 376.233 274.787 376.169 272.139V257.286H372.498L372.659 254.806L376.15 254.487L377.434 248.831L379.914 248.742V254.487H386.787V257.286H379.914V271.463C379.914 273.34 380.203 274.664 380.772 275.434C381.341 276.198 382.316 276.581 383.699 276.581C384.199 276.581 385.272 276.463 386.929 276.218L387.086 279.198C385.297 279.512 383.924 279.669 382.983 279.669Z" fill="#858789"/>
<path d="M400.155 279.219H396.371V254.489H400.155V279.219ZM400.155 249.96H396.371V245.494H400.155V249.96Z" fill="#858789"/>
<path d="M421.246 247.299C419.687 247.299 418.613 247.75 418.035 248.652C417.456 249.554 417.167 251.117 417.167 253.338V254.49H423.118V257.284H417.167V279.22H413.398V257.284H409.388L409.706 254.804L413.398 254.49V253.387C413.432 250.201 414.025 247.887 415.197 246.456C416.358 245.019 418.241 244.299 420.839 244.299C421.848 244.299 423.079 244.411 424.54 244.637L424.29 247.593C422.951 247.397 421.937 247.299 421.246 247.299Z" fill="#858789"/>
<path d="M428.388 254.489H432.378L440.177 275.072L447.118 254.489H451.113C444.437 272.856 440.991 282.322 440.76 282.89C439.726 285.493 438.476 287.395 437 288.606C435.525 289.817 433.589 290.425 431.182 290.425C430.461 290.425 429.706 290.361 428.902 290.243L428.682 287.042C429.52 287.101 430.152 287.131 430.574 287.131C432.275 287.131 433.564 286.817 434.442 286.194C435.319 285.572 436.103 284.405 436.799 282.69C437.412 281.111 437.873 279.895 438.172 279.038L428.388 254.489Z" fill="#858789"/>
<path d="M463.641 279.219H459.856V254.489H463.641V279.219ZM463.641 249.96H459.856V245.494H463.641V249.96Z" fill="#858789"/>
<path d="M475.335 279.219V254.489H478.497L478.968 258.028C479.943 256.812 481.164 255.832 482.63 255.087C484.095 254.342 485.674 253.974 487.375 253.974C490.232 253.974 492.345 254.773 493.708 256.371C495.076 257.974 495.762 260.435 495.762 263.753V279.219H491.992C491.992 269.302 491.987 263.989 491.978 263.283C491.914 261.175 491.487 259.636 490.703 258.66C489.914 257.68 488.59 257.195 486.742 257.195C484.806 257.195 483.193 257.66 481.899 258.592C480.605 259.523 479.762 260.734 479.37 262.224C479.223 263.229 479.144 264.386 479.144 265.695V279.219H475.335Z" fill="#858789"/>
<path d="M516.246 275.995C517.525 275.995 518.643 275.769 519.608 275.318C520.569 274.867 521.319 274.245 521.863 273.446C522.402 272.652 522.804 271.764 523.069 270.789C523.329 269.813 523.461 268.745 523.461 267.588V265.76C523.461 264.559 523.324 263.451 523.059 262.436C522.785 261.421 522.368 260.51 521.804 259.711C521.246 258.907 520.491 258.274 519.55 257.823C518.608 257.377 517.52 257.152 516.27 257.152C515.236 257.152 514.295 257.343 513.442 257.735C512.594 258.127 511.893 258.642 511.344 259.279C510.8 259.921 510.329 260.661 509.947 261.51C509.564 262.362 509.29 263.22 509.123 264.093C508.961 264.965 508.878 265.843 508.878 266.73C508.878 267.603 508.966 268.465 509.148 269.323C509.329 270.176 509.608 271.014 510.005 271.823C510.398 272.637 510.868 273.348 511.427 273.956C511.981 274.563 512.672 275.058 513.505 275.431C514.344 275.808 515.255 275.995 516.246 275.995ZM510.451 290.534L510.118 287.132H514.716C515.991 287.132 517.103 287.039 518.05 286.862C519 286.681 519.79 286.382 520.422 285.97C521.05 285.558 521.559 285.098 521.951 284.593C522.339 284.093 522.643 283.441 522.844 282.632C523.045 281.828 523.182 281.034 523.25 280.245C523.314 279.456 523.349 278.49 523.349 277.348V275.161C522.447 276.456 521.402 277.451 520.216 278.147C519.025 278.848 517.52 279.196 515.687 279.196C514.275 279.196 512.966 278.956 511.775 278.46C510.579 277.975 509.574 277.323 508.755 276.514C507.937 275.701 507.236 274.764 506.657 273.696C506.079 272.627 505.657 271.524 505.393 270.382C505.128 269.24 505 268.093 505 266.931C505 265.132 505.221 263.461 505.667 261.926C506.108 260.397 506.76 259.029 507.638 257.823C508.51 256.622 509.652 255.681 511.074 254.995C512.491 254.313 514.118 253.97 515.951 253.97C517.574 253.97 518.996 254.284 520.206 254.907C521.417 255.529 522.496 256.49 523.461 257.779V254.49H527.138V277.436C527.138 278.49 527.108 279.411 527.059 280.201C527.001 280.99 526.878 281.862 526.672 282.828C526.471 283.789 526.197 284.612 525.853 285.304C525.505 286 525.02 286.691 524.398 287.392C523.775 288.088 523.03 288.656 522.167 289.078C521.3 289.509 520.226 289.857 518.956 290.127C517.677 290.397 516.231 290.534 514.623 290.534H510.451Z" fill="#858789"/>
<path d="M564.097 261.682C565.573 261.682 566.832 261.539 567.881 261.255C568.935 260.966 569.744 260.613 570.308 260.191C570.872 259.77 571.318 259.226 571.636 258.544C571.96 257.873 572.161 257.25 572.234 256.686C572.313 256.123 572.352 255.446 572.352 254.647C572.352 252.74 571.705 251.334 570.421 250.432C569.136 249.53 567.391 249.079 565.181 249.079H558.215V261.637C561.117 261.667 563.078 261.682 564.097 261.682ZM558.215 279.221H554.225V245.495H565.087C566.744 245.495 568.239 245.667 569.573 246.015C570.916 246.358 572.102 246.883 573.136 247.588C574.176 248.299 574.98 249.245 575.548 250.432C576.122 251.618 576.406 253 576.406 254.579C576.406 255.887 576.283 257.054 576.048 258.084C575.808 259.118 575.391 260.079 574.808 260.981C574.22 261.883 573.45 262.633 572.509 263.226C571.558 263.819 570.342 264.284 568.867 264.623C567.386 264.961 565.666 265.133 563.715 265.133C562.166 265.133 560.332 265.034 558.215 264.838V279.221Z" fill="#858789"/>
<path d="M587.448 266.911C587.448 269.843 588.1 272.191 589.394 273.955C590.698 275.72 592.595 276.602 595.091 276.602C597.556 276.602 599.414 275.725 600.669 273.965C601.924 272.21 602.551 269.843 602.551 266.867C602.551 263.848 601.934 261.465 600.693 259.73C599.453 257.995 597.561 257.127 595.022 257.127C592.556 257.127 590.679 258.014 589.39 259.784C588.095 261.558 587.448 263.936 587.448 266.911ZM606.453 266.843C606.453 270.676 605.429 273.784 603.385 276.166C601.341 278.549 598.517 279.74 594.909 279.74C591.434 279.74 588.679 278.534 586.625 276.132C584.576 273.725 583.546 270.637 583.546 266.867C583.546 263.019 584.576 259.906 586.635 257.534C588.693 255.161 591.522 253.97 595.11 253.97C598.644 253.97 601.419 255.161 603.434 257.544C605.443 259.926 606.453 263.029 606.453 266.843Z" fill="#858789"/>
<path d="M623.041 279.669C620.634 279.669 618.933 279.022 617.933 277.728C616.933 276.439 616.433 274.193 616.433 270.988V244.885L620.178 244.659V269.502C620.178 270.527 620.188 271.345 620.212 271.958C620.232 272.576 620.286 273.184 620.379 273.772C620.472 274.37 620.59 274.816 620.737 275.115C620.893 275.419 621.104 275.689 621.393 275.939C621.678 276.189 622.021 276.35 622.418 276.434C622.815 276.517 623.31 276.561 623.898 276.561C624.374 276.561 625.325 276.468 626.737 276.291L626.938 279.287C625.389 279.541 624.09 279.669 623.041 279.669Z" fill="#858789"/>
<path d="M638.274 279.219H634.489V254.489H638.274V279.219ZM638.274 249.96H634.489V245.494H638.274V249.96Z" fill="#858789"/>
<path d="M660.428 279.738C656.795 279.738 653.952 278.557 651.898 276.199C649.849 273.836 648.82 270.753 648.82 266.934C648.835 263.086 649.884 259.964 651.962 257.567C654.045 255.169 656.898 253.973 660.521 253.973C661.795 253.973 663.031 254.13 664.227 254.444C665.428 254.758 666.364 255.174 667.06 255.684L666.021 258.616C664.261 257.669 662.403 257.194 660.452 257.194C658.065 257.194 656.173 258.067 654.786 259.812C653.388 261.552 652.697 263.934 652.697 266.954C652.697 269.9 653.384 272.233 654.761 273.954C656.134 275.674 658.04 276.537 660.477 276.537C662.413 276.537 664.398 276.013 666.428 274.959L666.898 277.959C665.261 279.145 663.104 279.738 660.428 279.738Z" fill="#858789"/>
<path d="M673.247 254.489H677.237L685.036 275.072L691.977 254.489H695.973C689.296 272.856 685.85 282.322 685.62 282.89C684.585 285.493 683.335 287.395 681.86 288.606C680.384 289.817 678.448 290.425 676.041 290.425C675.321 290.425 674.566 290.361 673.762 290.243L673.541 287.042C674.379 287.101 675.012 287.131 675.433 287.131C677.134 287.131 678.424 286.817 679.301 286.194C680.178 285.572 680.963 284.405 681.659 282.69C682.272 281.111 682.732 279.895 683.031 279.038L673.247 254.489Z" fill="#858789"/>
<path d="M178.554 6.83569C176.323 33.7082 152.132 39.022 117.461 53.9484C101.024 61.022 84.9902 72.4925 79.4117 92.2572C73.0098 114.983 80.2402 129.095 92.1617 150.865C97.2696 160.247 102.015 175.404 93.8235 189.385C89.2941 160.792 67.9706 154.439 49.049 154.316C30.2059 154.179 8.56372 158.894 0 139.845C4.43137 169.6 17.9461 189.399 35.5343 199.282C59.9755 213.012 85.1666 213.978 107.181 205.556C127.5 197.782 149.309 175.723 164.054 144.934C180.73 110.11 188.358 54.2965 178.554 6.83569Z" fill="#BBD641"/>
<path d="M74.935 50.6077C57.9056 68.6175 53.087 88.1421 56.2095 108.421C59.1017 127.221 75.0085 141.505 87.3468 156.284C92.3909 162.338 98.6997 176.495 93.8272 189.382C94.636 162.382 77.8418 151.985 60.9056 147.559C42.6801 142.789 22.1997 145.157 16.6262 120C14.8811 162.706 32.9938 188.681 54.8566 201.073C72.6213 211.127 90.6507 212.024 106.018 206.118C129.798 196.985 146.371 164.456 141.577 110.363C136.66 54.7058 113.092 23.3234 101.165 -0.000115322C107.131 18.4313 94.984 29.4166 74.935 50.6077" fill="url(#paint0_linear)"/>
<path d="M115.632 55.0732C99.2003 62.1418 84.9895 75.1321 79.416 94.8968C73.0091 117.632 80.2444 131.735 92.1611 153.514C97.2738 162.887 101.96 175.475 93.764 189.455C89.2395 160.867 67.9748 157.088 49.0532 156.956C40.0238 156.902 29.0679 156.044 20.0483 154.142C25.1415 176.338 40.4111 192.882 54.8571 201.073C72.6218 211.127 90.6513 212.024 106.019 206.117C129.798 196.985 146.372 164.456 141.578 110.362C139.514 87.0144 133.274 66.0634 126.166 50.4801C122.936 51.8576 119.156 53.5536 115.632 55.0732" fill="url(#paint1_linear)"/>
<path d="M241.808 89.2615L255.862 89.2664C259.136 89.2664 262.548 86.6732 262.548 78.8987C262.553 70.8497 258.46 68.5311 255.185 68.5311L241.812 68.5262L241.808 89.2615ZM215.19 142.188L215.219 45.3203L256.964 45.335C275.93 45.3399 289.567 62.3987 289.562 78.9085C289.558 96.0997 276.729 112.462 257.626 112.458L241.803 112.453L241.793 142.198L215.19 142.188Z" fill="#4D4C4E"/>
<path d="M344.528 119.443C358.038 119.443 363.911 106.35 363.911 93.6638C363.916 80.5658 357.504 68.4187 344.411 68.4187C331.038 68.4138 325.028 81.2374 325.028 93.9236C325.023 106.884 331.293 119.438 344.528 119.443ZM298.014 93.6442C298.023 67.9923 317.675 44.806 344.827 44.8158C372.656 44.8207 390.93 69.5217 390.92 94.2177C390.916 119.595 371.538 143.051 344.249 143.046C316.553 143.036 298.009 118.61 298.014 93.6442Z" fill="#4D4C4E"/>
<path d="M405.774 142.245L405.803 45.3768L432.411 45.3866L432.392 119.063L476.323 119.073L476.313 142.264L405.774 142.245Z" fill="#4D4C4E"/>
<path d="M489.405 142.269L489.434 45.4016L516.042 45.4114L516.013 142.274L489.405 142.269Z" fill="#4D4C4E"/>
<path d="M577.573 44.8849C594.759 44.8898 608.401 53.3555 614.538 66.0418L594.205 80.4976C591.073 71.0859 583.024 68.4878 577.024 68.4878C563.646 68.4829 557.778 81.7133 557.774 93.8555C557.774 107.365 565.004 119.507 577.274 119.512C583.416 119.517 591.058 116.38 593.788 107.65L615.474 120.615C610.014 134.939 592.141 143.12 576.72 143.115C549.71 143.105 530.754 117.86 530.759 93.0319C530.769 69.429 548.102 44.8751 577.573 44.8849Z" fill="#4D4C4E"/>
<path d="M647.56 45.4524L664.878 87.3397L682.618 45.4622L711.545 45.472L678.099 110.266L678.094 142.33L651.623 142.32L651.633 109.987L618.771 45.4426L647.56 45.4524Z" fill="#4D4C4E"/>
<path d="M214.474 160.787L224.366 160.757L224.439 184.154L251.297 184.071L251.224 160.669L261.111 160.64L261.287 216.924L251.4 216.953L251.327 193.238L224.469 193.321L224.542 217.042L214.65 217.071L214.474 160.787Z" fill="#96989B"/>
<path d="M357.985 194.268L348.186 171.782L338.607 194.327L357.985 194.268ZM343.73 159.974L352.892 159.949L377.838 216.557L367.387 216.591L361.632 203.023L335.014 203.106L329.274 216.714L319.142 216.743L343.73 159.974Z" fill="#96989B"/>
<path d="M433.108 188.239C433.054 172.239 444.995 159.097 462.039 159.038C472.417 159.008 478.696 162.606 484.103 167.734L477.77 175.072C473.255 170.905 468.422 168.106 461.99 168.126C451.211 168.16 443.441 177.033 443.481 188.209C443.515 199.224 451.343 208.204 462.118 208.17C469.03 208.151 473.446 205.317 478.255 200.803L484.633 207.214C478.775 213.347 472.358 217.224 461.819 217.258C445.422 217.307 433.157 204.562 433.108 188.239Z" fill="#96989B"/>
<path d="M543.058 159.749L552.95 159.719L553.034 188.023L579.72 159.636L591.862 159.597L568.538 183.871L593.087 215.876L581.107 215.916L561.808 190.646L553.073 199.68L553.127 216.004L543.235 216.033L543.058 159.749Z" fill="#96989B"/>
<path d="M645.922 207.507L651.854 200.414C657.261 205.061 662.648 207.699 669.643 207.674C675.756 207.654 679.609 204.831 679.594 200.409C679.579 196.385 677.324 194.223 666.859 191.767C654.873 188.988 648.109 185.473 648.074 174.939C648.045 165.292 656.06 158.591 667.241 158.551C675.437 158.527 681.966 161.002 687.687 165.566L682.403 173.061C677.324 169.297 672.251 167.301 667.104 167.316C661.319 167.336 657.952 170.321 657.962 174.184C657.976 178.522 660.55 180.444 671.339 182.988C683.246 185.841 689.452 190.086 689.481 199.571C689.515 210.105 681.251 216.404 669.432 216.439C660.829 216.468 652.697 213.522 645.922 207.507Z" fill="#96989B"/>
<defs>
<linearGradient id="paint0_linear" x1="0.642356" y1="181.546" x2="210.397" y2="23.6429" gradientUnits="userSpaceOnUse">
<stop stop-color="#F06690"/>
<stop offset="0.245399" stop-color="#F3764F"/>
<stop offset="0.764045" stop-color="#F89C39"/>
<stop offset="1" stop-color="#FFD346"/>
</linearGradient>
<linearGradient id="paint1_linear" x1="165.533" y1="167.407" x2="23.5325" y2="88.6123" gradientUnits="userSpaceOnUse">
<stop stop-color="#F06690"/>
<stop offset="0.245399" stop-color="#F3764F"/>
<stop offset="0.764045" stop-color="#F89C39"/>
<stop offset="1" stop-color="#FFD346"/>
</linearGradient>
</defs>
</svg>
